# MagicaVoxel @ Ephtracy

# material
mtllib Character-Female.mtl
usemtl palette

# normals
vn -1 0 0
vn 1 0 0
vn 0 0 1
vn 0 0 -1
vn 0 -1 0
vn 0 1 0

# texcoords
vt 0.880859 0.5
vt 0.912109 0.5
vt 0.916016 0.5
vt 0.943359 0.5
vt 0.947266 0.5
vt 0.970703 0.5
vt 0.974609 0.5
vt 0.990234 0.5
vt 0.994141 0.5

# verts
v -23 23 1
v -23 23 -1
v -23 25 1
v -23 25 -1
v -22 23 2
v -22 23 1
v -22 24 2
v -22 24 1
v -10 22 -2
v -10 22 -6
v -10 23 -6
v -10 23 -7
v -10 24 -7
v -10 24 -8
v -10 32 -0
v -10 32 -2
v -10 36 4
v -10 36 -0
v -10 36 -2
v -10 38 6
v -10 38 4
v -10 40 6
v -10 40 5
v -10 40 -7
v -10 40 -8
v -10 41 5
v -10 41 -7
v -9 41 4
v -9 41 -6
v -9 42 4
v -9 42 -6
v -8 12 2
v -8 12 -4
v -8 22 -2
v -8 22 -4
v -8 23 1
v -8 23 -1
v -8 25 1
v -8 25 -1
v -8 26 2
v -8 26 -2
v -8 28 3
v -8 28 -2
v -8 29 4
v -8 29 3
v -8 32 -0
v -8 32 -2
v -8 36 4
v -8 36 -0
v -7 28 4
v -7 28 3
v -7 29 4
v -7 29 3
v -7 36 6
v -7 36 4
v -7 37 6
v -7 37 4
v -6 0 2
v -6 0 -2
v -6 2 2
v -6 2 -0
v -6 2 -2
v -6 8 -0
v -6 8 -2
v -6 12 -0
v -6 12 -2
v -4 26 -0
v -4 26 -2
v -4 28 -0
v -4 28 -2
v -3 31 6
v -3 31 4
v -3 36 6
v -3 36 4
v 0 0 2
v 0 0 -2
v 0 2 2
v 0 2 -0
v 0 2 -2
v 0 8 -0
v 0 8 -2
v 0 12 -0
v 0 12 -2
v 0 36 6
v 0 36 4
v 0 37 6
v 0 37 4
v 2 12 -0
v 2 12 -2
v 2 14 -0
v 2 14 -2
v 2 24 -0
v 2 24 -2
v 4 23 -4
v 4 23 -6
v 4 26 -2
v 4 26 -4
v 4 28 -2
v 4 28 -6
v 18 23 2
v 18 23 1
v 18 24 2
v 18 24 1
v -21 23 2
v -21 23 1
v -21 24 2
v -21 24 1
v -8 23 -4
v -8 23 -6
v -8 26 -2
v -8 26 -4
v -8 28 -2
v -8 28 -6
v -6 12 -0
v -6 12 -2
v -6 14 -0
v -6 14 -2
v -6 24 -0
v -6 24 -2
v -4 0 2
v -4 0 -2
v -4 2 2
v -4 2 -0
v -4 2 -2
v -4 8 -0
v -4 8 -2
v -4 12 -0
v -4 12 -2
v -4 36 6
v -4 36 4
v -4 37 6
v -4 37 4
v -1 31 6
v -1 31 4
v -1 36 6
v -1 36 4
v 0 26 -0
v 0 26 -2
v 0 28 -0
v 0 28 -2
v 2 0 2
v 2 0 -2
v 2 2 2
v 2 2 -0
v 2 2 -2
v 2 8 -0
v 2 8 -2
v 2 12 -0
v 2 12 -2
v 3 28 4
v 3 28 3
v 3 29 4
v 3 29 3
v 3 36 6
v 3 36 4
v 3 37 6
v 3 37 4
v 4 12 2
v 4 12 -4
v 4 22 -2
v 4 22 -4
v 4 23 1
v 4 23 -1
v 4 25 1
v 4 25 -1
v 4 26 2
v 4 26 -2
v 4 28 3
v 4 28 -2
v 4 29 4
v 4 29 3
v 4 32 -0
v 4 32 -2
v 4 36 4
v 4 36 -0
v 5 41 4
v 5 41 -6
v 5 42 4
v 5 42 -6
v 6 22 -2
v 6 22 -6
v 6 23 -6
v 6 23 -7
v 6 24 -7
v 6 24 -8
v 6 32 -0
v 6 32 -2
v 6 36 4
v 6 36 -0
v 6 36 -2
v 6 38 6
v 6 38 4
v 6 40 6
v 6 40 5
v 6 40 -7
v 6 40 -8
v 6 41 5
v 6 41 -7
v 19 23 2
v 19 23 1
v 19 24 2
v 19 24 1
v 20 23 1
v 20 23 -1
v 20 25 1
v 20 25 -1
v -10 38 6
v -10 40 6
v -7 36 6
v -7 37 6
v -4 36 6
v -4 37 6
v -3 31 6
v -3 36 6
v -1 31 6
v -1 36 6
v 0 36 6
v 0 37 6
v 3 36 6
v 3 37 6
v 6 38 6
v 6 40 6
v -10 40 5
v -10 41 5
v 6 40 5
v 6 41 5
v -10 36 4
v -10 38 4
v -9 41 4
v -9 42 4
v -8 29 4
v -8 36 4
v -8 38 4
v -7 28 4
v -7 29 4
v -7 36 4
v -7 37 4
v -6 32 4
v -6 35 4
v -5 30 4
v -5 31 4
v -5 32 4
v -5 35 4
v -4 29 4
v -4 30 4
v -4 31 4
v -4 36 4
v -4 37 4
v -3 31 4
v -3 36 4
v -1 31 4
v -1 36 4
v 0 29 4
v 0 30 4
v 0 31 4
v 0 36 4
v 0 37 4
v 1 30 4
v 1 31 4
v 1 32 4
v 1 35 4
v 2 32 4
v 2 35 4
v 3 28 4
v 3 29 4
v 3 36 4
v 3 37 4
v 4 29 4
v 4 36 4
v 4 38 4
v 5 41 4
v 5 42 4
v 6 36 4
v 6 38 4
v -8 28 3
v -8 29 3
v -7 28 3
v -7 29 3
v 3 28 3
v 3 29 3
v 4 28 3
v 4 29 3
v -22 23 2
v -22 24 2
v -21 23 2
v -21 24 2
v -8 12 2
v -8 26 2
v -6 0 2
v -6 2 2
v -4 0 2
v -4 2 2
v 0 0 2
v 0 2 2
v 2 0 2
v 2 2 2
v 4 12 2
v 4 26 2
v 18 23 2
v 18 24 2
v 19 23 2
v 19 24 2
v -23 23 1
v -23 25 1
v -22 23 1
v -22 24 1
v -21 23 1
v -21 24 1
v -17 23 1
v -17 25 1
v -15 23 1
v -15 25 1
v -8 23 1
v -8 25 1
v 4 23 1
v 4 25 1
v 12 23 1
v 12 25 1
v 14 23 1
v 14 25 1
v 18 23 1
v 18 24 1
v 19 23 1
v 19 24 1
v 20 23 1
v 20 25 1
v -10 32 -0
v -10 36 -0
v -8 32 -0
v -8 36 -0
v -6 2 -0
v -6 8 -0
v -6 12 -0
v -4 2 -0
v -4 8 -0
v -4 12 -0
v -4 26 -0
v -4 28 -0
v 0 2 -0
v 0 8 -0
v 0 12 -0
v 0 26 -0
v 0 28 -0
v 2 2 -0
v 2 8 -0
v 2 12 -0
v 4 32 -0
v 4 36 -0
v 6 32 -0
v 6 36 -0
v -10 22 -2
v -10 32 -2
v -8 22 -2
v -8 26 -2
v -8 28 -2
v -8 32 -2
v -6 12 -2
v -6 14 -2
v -6 24 -2
v -4 12 -2
v 0 12 -2
v 2 12 -2
v 2 14 -2
v 2 24 -2
v 4 22 -2
v 4 26 -2
v 4 28 -2
v 4 32 -2
v 6 22 -2
v 6 32 -2
v -8 23 -6
v -8 28 -6
v 4 23 -6
v 4 28 -6
v -6 12 -0
v -6 14 -0
v -6 24 -0
v -4 12 -0
v 0 12 -0
v 2 12 -0
v 2 14 -0
v 2 24 -0
v -23 23 -1
v -23 25 -1
v -17 23 -1
v -17 25 -1
v -15 23 -1
v -15 25 -1
v -8 23 -1
v -8 25 -1
v 4 23 -1
v 4 25 -1
v 12 23 -1
v 12 25 -1
v 14 23 -1
v 14 25 -1
v 20 23 -1
v 20 25 -1
v -6 0 -2
v -6 2 -2
v -6 8 -2
v -6 12 -2
v -4 0 -2
v -4 2 -2
v -4 8 -2
v -4 12 -2
v -4 26 -2
v -4 28 -2
v 0 0 -2
v 0 2 -2
v 0 8 -2
v 0 12 -2
v 0 26 -2
v 0 28 -2
v 2 0 -2
v 2 2 -2
v 2 8 -2
v 2 12 -2
v -8 12 -4
v -8 22 -4
v -8 23 -4
v -8 26 -4
v 4 12 -4
v 4 22 -4
v 4 23 -4
v 4 26 -4
v -10 22 -6
v -10 23 -6
v -9 41 -6
v -9 42 -6
v 5 41 -6
v 5 42 -6
v 6 22 -6
v 6 23 -6
v -10 23 -7
v -10 24 -7
v -10 40 -7
v -10 41 -7
v 6 23 -7
v 6 24 -7
v 6 40 -7
v 6 41 -7
v -10 24 -8
v -10 40 -8
v 6 24 -8
v 6 40 -8
v -6 0 2
v -4 0 2
v 0 0 2
v 2 0 2
v -6 0 -2
v -4 0 -2
v 0 0 -2
v 2 0 -2
v -8 12 2
v 4 12 2
v -6 12 -0
v -4 12 -0
v 0 12 -0
v 2 12 -0
v -6 12 -2
v -4 12 -2
v 0 12 -2
v 2 12 -2
v -8 12 -4
v 4 12 -4
v -10 22 -2
v -8 22 -2
v 4 22 -2
v 6 22 -2
v -8 22 -4
v 4 22 -4
v -10 22 -6
v 6 22 -6
v -22 23 2
v -21 23 2
v 18 23 2
v 19 23 2
v -23 23 1
v -22 23 1
v -21 23 1
v -17 23 1
v -15 23 1
v -8 23 1
v 4 23 1
v 12 23 1
v 14 23 1
v 18 23 1
v 19 23 1
v 20 23 1
v -23 23 -1
v -17 23 -1
v -15 23 -1
v -8 23 -1
v 4 23 -1
v 12 23 -1
v 14 23 -1
v 20 23 -1
v -10 23 -6
v 6 23 -6
v -10 23 -7
v 6 23 -7
v -6 24 -0
v 2 24 -0
v -6 24 -2
v 2 24 -2
v -10 24 -7
v 6 24 -7
v -10 24 -8
v 6 24 -8
v -7 28 4
v 3 28 4
v -8 28 3
v -7 28 3
v 3 28 3
v 4 28 3
v -4 28 -0
v 0 28 -0
v -8 28 -2
v -4 28 -2
v 0 28 -2
v 4 28 -2
v -8 28 -6
v 4 28 -6
v -8 29 4
v -7 29 4
v 3 29 4
v 4 29 4
v -8 29 3
v -7 29 3
v 3 29 3
v 4 29 3
v -3 31 6
v -1 31 6
v -3 31 4
v -1 31 4
v -10 32 -0
v -8 32 -0
v 4 32 -0
v 6 32 -0
v -10 32 -2
v -8 32 -2
v 4 32 -2
v 6 32 -2
v -7 36 6
v -4 36 6
v 0 36 6
v 3 36 6
v -10 36 4
v -8 36 4
v -7 36 4
v -4 36 4
v 0 36 4
v 3 36 4
v 4 36 4
v 6 36 4
v -10 36 -0
v -8 36 -0
v 4 36 -0
v 6 36 -0
v -10 38 6
v 6 38 6
v -10 38 4
v -8 38 4
v 4 38 4
v 6 38 4
v -6 2 2
v -4 2 2
v 0 2 2
v 2 2 2
v -6 2 -0
v -4 2 -0
v 0 2 -0
v 2 2 -0
v -6 12 -0
v -4 12 -0
v 0 12 -0
v 2 12 -0
v -6 12 -2
v -4 12 -2
v 0 12 -2
v 2 12 -2
v -8 23 -4
v 4 23 -4
v -8 23 -6
v 4 23 -6
v -22 24 2
v -21 24 2
v 18 24 2
v 19 24 2
v -22 24 1
v -21 24 1
v 18 24 1
v 19 24 1
v -23 25 1
v -17 25 1
v -15 25 1
v -8 25 1
v 4 25 1
v 12 25 1
v 14 25 1
v 20 25 1
v -23 25 -1
v -17 25 -1
v -15 25 -1
v -8 25 -1
v 4 25 -1
v 12 25 -1
v 14 25 -1
v 20 25 -1
v -8 26 2
v 4 26 2
v -6 26 -0
v -4 26 -0
v 0 26 -0
v 2 26 -0
v -8 26 -2
v -6 26 -2
v -4 26 -2
v 0 26 -2
v 2 26 -2
v 4 26 -2
v -8 26 -4
v 4 26 -4
v -3 36 6
v -1 36 6
v -3 36 4
v -1 36 4
v -7 37 6
v -4 37 6
v 0 37 6
v 3 37 6
v -7 37 4
v -4 37 4
v 0 37 4
v 3 37 4
v -10 40 6
v 6 40 6
v -10 40 5
v 6 40 5
v -10 40 -7
v 6 40 -7
v -10 40 -8
v 6 40 -8
v -10 41 5
v 6 41 5
v -9 41 4
v 5 41 4
v -9 41 -6
v 5 41 -6
v -10 41 -7
v 6 41 -7
v -9 42 4
v 5 42 4
v -9 42 -6
v 5 42 -6

# faces
f 3/4/1 2/4/1 1/4/1
f 4/4/1 2/4/1 3/4/1
f 7/4/1 6/4/1 5/4/1
f 8/4/1 6/4/1 7/4/1
f 11/3/1 10/3/1 9/3/1
f 13/3/1 12/3/1 11/3/1
f 16/3/1 11/3/1 9/3/1
f 16/3/1 14/3/1 13/3/1
f 16/3/1 13/3/1 11/3/1
f 18/4/1 16/4/1 15/4/1
f 19/3/1 14/3/1 16/3/1
f 19/4/1 16/4/1 18/4/1
f 21/3/1 18/3/1 17/3/1
f 21/3/1 19/3/1 18/3/1
f 22/3/1 21/3/1 20/3/1
f 23/3/1 21/3/1 22/3/1
f 24/3/1 14/3/1 19/3/1
f 24/3/1 21/3/1 23/3/1
f 24/3/1 19/3/1 21/3/1
f 25/3/1 14/3/1 24/3/1
f 26/3/1 24/3/1 23/3/1
f 27/3/1 24/3/1 26/3/1
f 30/3/1 29/3/1 28/3/1
f 31/3/1 29/3/1 30/3/1
f 34/1/1 33/1/1 32/1/1
f 35/1/1 33/1/1 34/1/1
f 36/1/1 34/1/1 32/1/1
f 37/1/1 34/1/1 36/1/1
f 38/1/1 36/1/1 32/1/1
f 39/1/1 34/1/1 37/1/1
f 40/1/1 38/1/1 32/1/1
f 40/1/1 39/1/1 38/1/1
f 41/1/1 34/1/1 39/1/1
f 41/1/1 39/1/1 40/1/1
f 45/4/1 43/4/1 42/4/1
f 46/4/1 43/4/1 45/4/1
f 46/4/1 45/4/1 44/4/1
f 47/4/1 43/4/1 46/4/1
f 48/4/1 46/4/1 44/4/1
f 49/4/1 46/4/1 48/4/1
f 52/4/1 51/4/1 50/4/1
f 53/4/1 51/4/1 52/4/1
f 56/5/1 55/5/1 54/5/1
f 57/5/1 55/5/1 56/5/1
f 60/9/1 59/9/1 58/9/1
f 61/9/1 59/9/1 60/9/1
f 62/9/1 59/9/1 61/9/1
f 63/4/1 62/4/1 61/4/1
f 64/4/1 62/4/1 63/4/1
f 65/8/1 64/8/1 63/8/1
f 66/8/1 64/8/1 65/8/1
f 69/4/1 68/4/1 67/4/1
f 70/4/1 68/4/1 69/4/1
f 73/2/1 72/2/1 71/2/1
f 74/2/1 72/2/1 73/2/1
f 77/9/1 76/9/1 75/9/1
f 78/9/1 76/9/1 77/9/1
f 79/9/1 76/9/1 78/9/1
f 80/4/1 79/4/1 78/4/1
f 81/4/1 79/4/1 80/4/1
f 82/8/1 81/8/1 80/8/1
f 83/8/1 81/8/1 82/8/1
f 86/5/1 85/5/1 84/5/1
f 87/5/1 85/5/1 86/5/1
f 90/1/1 89/1/1 88/1/1
f 91/1/1 89/1/1 90/1/1
f 92/6/1 91/6/1 90/6/1
f 93/6/1 91/6/1 92/6/1
f 97/3/1 95/3/1 94/3/1
f 98/3/1 97/3/1 96/3/1
f 99/3/1 95/3/1 97/3/1
f 99/3/1 97/3/1 98/3/1
f 102/4/1 101/4/1 100/4/1
f 103/4/1 101/4/1 102/4/1
f 104/4/2 105/4/2 106/4/2
f 106/4/2 105/4/2 107/4/2
f 108/3/2 109/3/2 111/3/2
f 110/3/2 111/3/2 112/3/2
f 111/3/2 109/3/2 113/3/2
f 112/3/2 111/3/2 113/3/2
f 114/1/2 115/1/2 116/1/2
f 116/1/2 115/1/2 117/1/2
f 116/6/2 117/6/2 118/6/2
f 118/6/2 117/6/2 119/6/2
f 120/9/2 121/9/2 122/9/2
f 122/9/2 121/9/2 123/9/2
f 123/9/2 121/9/2 124/9/2
f 123/4/2 124/4/2 125/4/2
f 125/4/2 124/4/2 126/4/2
f 125/8/2 126/8/2 127/8/2
f 127/8/2 126/8/2 128/8/2
f 129/5/2 130/5/2 131/5/2
f 131/5/2 130/5/2 132/5/2
f 133/2/2 134/2/2 135/2/2
f 135/2/2 134/2/2 136/2/2
f 137/4/2 138/4/2 139/4/2
f 139/4/2 138/4/2 140/4/2
f 141/9/2 142/9/2 143/9/2
f 143/9/2 142/9/2 144/9/2
f 144/9/2 142/9/2 145/9/2
f 144/4/2 145/4/2 146/4/2
f 146/4/2 145/4/2 147/4/2
f 146/8/2 147/8/2 148/8/2
f 148/8/2 147/8/2 149/8/2
f 150/4/2 151/4/2 152/4/2
f 152/4/2 151/4/2 153/4/2
f 154/5/2 155/5/2 156/5/2
f 156/5/2 155/5/2 157/5/2
f 158/1/2 159/1/2 160/1/2
f 160/1/2 159/1/2 161/1/2
f 158/1/2 160/1/2 162/1/2
f 162/1/2 160/1/2 163/1/2
f 158/1/2 162/1/2 164/1/2
f 163/1/2 160/1/2 165/1/2
f 158/1/2 164/1/2 166/1/2
f 164/1/2 165/1/2 166/1/2
f 165/1/2 160/1/2 167/1/2
f 166/1/2 165/1/2 167/1/2
f 168/4/2 169/4/2 171/4/2
f 171/4/2 169/4/2 172/4/2
f 170/4/2 171/4/2 172/4/2
f 172/4/2 169/4/2 173/4/2
f 170/4/2 172/4/2 174/4/2
f 174/4/2 172/4/2 175/4/2
f 176/3/2 177/3/2 178/3/2
f 178/3/2 177/3/2 179/3/2
f 180/3/2 181/3/2 182/3/2
f 182/3/2 183/3/2 184/3/2
f 180/3/2 182/3/2 187/3/2
f 184/3/2 185/3/2 187/3/2
f 182/3/2 184/3/2 187/3/2
f 186/4/2 187/4/2 189/4/2
f 187/3/2 185/3/2 190/3/2
f 189/4/2 187/4/2 190/4/2
f 188/3/2 189/3/2 192/3/2
f 189/3/2 190/3/2 192/3/2
f 191/3/2 192/3/2 193/3/2
f 193/3/2 192/3/2 194/3/2
f 190/3/2 185/3/2 195/3/2
f 194/3/2 192/3/2 195/3/2
f 192/3/2 190/3/2 195/3/2
f 195/3/2 185/3/2 196/3/2
f 194/3/2 195/3/2 197/3/2
f 197/3/2 195/3/2 198/3/2
f 199/4/2 200/4/2 201/4/2
f 201/4/2 200/4/2 202/4/2
f 203/4/2 204/4/2 205/4/2
f 205/4/2 204/4/2 206/4/2
f 211/5/3 210/5/3 209/5/3
f 212/5/3 210/5/3 211/5/3
f 215/2/3 214/2/3 213/2/3
f 216/2/3 214/2/3 215/2/3
f 219/5/3 218/5/3 217/5/3
f 220/5/3 218/5/3 219/5/3
f 221/3/3 208/3/3 207/3/3
f 222/3/3 208/3/3 221/3/3
f 225/3/3 224/3/3 223/3/3
f 226/3/3 224/3/3 225/3/3
f 232/3/3 228/3/3 227/3/3
f 233/3/3 228/3/3 232/3/3
f 235/4/3 232/4/3 231/4/3
f 235/4/3 233/4/3 232/4/3
f 236/4/3 233/4/3 235/4/3
f 237/4/3 233/4/3 236/4/3
f 238/4/3 235/4/3 234/4/3
f 238/4/3 236/4/3 235/4/3
f 239/4/3 236/4/3 238/4/3
f 240/4/3 238/4/3 234/4/3
f 241/4/3 238/4/3 240/4/3
f 242/9/3 239/9/3 238/9/3
f 242/4/3 238/4/3 241/4/3
f 243/4/3 236/4/3 239/4/3
f 243/9/3 239/9/3 242/9/3
f 244/4/3 240/4/3 234/4/3
f 245/2/3 241/2/3 240/2/3
f 245/4/3 240/4/3 244/4/3
f 246/4/3 242/4/3 241/4/3
f 246/2/3 241/2/3 245/2/3
f 246/4/3 243/4/3 242/4/3
f 247/4/3 236/4/3 243/4/3
f 247/4/3 243/4/3 246/4/3
f 248/4/3 233/4/3 237/4/3
f 249/4/3 247/4/3 246/4/3
f 249/4/3 248/4/3 247/4/3
f 249/4/3 246/4/3 245/4/3
f 250/4/3 248/4/3 249/4/3
f 251/4/3 249/4/3 245/4/3
f 252/4/3 248/4/3 250/4/3
f 253/2/3 245/2/3 244/2/3
f 253/4/3 244/4/3 234/4/3
f 254/4/3 252/4/3 251/4/3
f 254/2/3 245/2/3 253/2/3
f 254/4/3 251/4/3 245/4/3
f 255/4/3 252/4/3 254/4/3
f 256/4/3 248/4/3 252/4/3
f 256/4/3 252/4/3 255/4/3
f 257/4/3 233/4/3 248/4/3
f 257/4/3 248/4/3 256/4/3
f 258/2/3 255/2/3 254/2/3
f 258/4/3 254/4/3 253/4/3
f 259/4/3 256/4/3 255/4/3
f 259/2/3 255/2/3 258/2/3
f 260/4/3 256/4/3 259/4/3
f 261/4/3 256/4/3 260/4/3
f 262/4/3 259/4/3 258/4/3
f 262/4/3 260/4/3 259/4/3
f 262/9/3 261/9/3 260/9/3
f 263/4/3 256/4/3 261/4/3
f 263/9/3 261/9/3 262/9/3
f 264/4/3 258/4/3 253/4/3
f 264/4/3 253/4/3 234/4/3
f 264/4/3 263/4/3 262/4/3
f 264/4/3 262/4/3 258/4/3
f 265/4/3 263/4/3 264/4/3
f 266/4/3 256/4/3 263/4/3
f 266/4/3 263/4/3 265/4/3
f 267/4/3 233/4/3 257/4/3
f 268/4/3 267/4/3 266/4/3
f 268/4/3 266/4/3 265/4/3
f 269/4/3 267/4/3 268/4/3
f 270/4/3 233/4/3 267/4/3
f 270/4/3 267/4/3 269/4/3
f 271/3/3 230/3/3 229/3/3
f 272/3/3 230/3/3 271/3/3
f 273/3/3 270/3/3 269/3/3
f 274/3/3 270/3/3 273/3/3
f 277/4/3 276/4/3 275/4/3
f 278/4/3 276/4/3 277/4/3
f 281/4/3 280/4/3 279/4/3
f 282/4/3 280/4/3 281/4/3
f 285/4/3 284/4/3 283/4/3
f 286/4/3 284/4/3 285/4/3
f 291/9/3 290/9/3 289/9/3
f 292/9/3 290/9/3 291/9/3
f 295/9/3 294/9/3 293/9/3
f 296/9/3 294/9/3 295/9/3
f 297/1/3 288/1/3 287/1/3
f 298/1/3 288/1/3 297/1/3
f 301/4/3 300/4/3 299/4/3
f 302/4/3 300/4/3 301/4/3
f 305/4/3 304/4/3 303/4/3
f 306/4/3 304/4/3 305/4/3
f 308/4/3 304/4/3 306/4/3
f 309/4/3 308/4/3 307/4/3
f 310/4/3 304/4/3 308/4/3
f 310/4/3 308/4/3 309/4/3
f 311/5/3 310/5/3 309/5/3
f 312/5/3 310/5/3 311/5/3
f 313/1/3 312/1/3 311/1/3
f 314/1/3 312/1/3 313/1/3
f 317/1/3 316/1/3 315/1/3
f 318/1/3 316/1/3 317/1/3
f 319/5/3 318/5/3 317/5/3
f 320/5/3 318/5/3 319/5/3
f 321/4/3 320/4/3 319/4/3
f 322/4/3 320/4/3 321/4/3
f 324/4/3 320/4/3 322/4/3
f 325/4/3 324/4/3 323/4/3
f 326/4/3 320/4/3 324/4/3
f 326/4/3 324/4/3 325/4/3
f 329/4/3 328/4/3 327/4/3
f 330/4/3 328/4/3 329/4/3
f 334/4/3 332/4/3 331/4/3
f 335/8/3 333/8/3 332/8/3
f 335/4/3 332/4/3 334/4/3
f 336/8/3 333/8/3 335/8/3
f 342/4/3 338/4/3 337/4/3
f 343/4/3 338/4/3 342/4/3
f 344/4/3 340/4/3 339/4/3
f 345/8/3 341/8/3 340/8/3
f 345/4/3 340/4/3 344/4/3
f 346/8/3 341/8/3 345/8/3
f 349/4/3 348/4/3 347/4/3
f 350/4/3 348/4/3 349/4/3
f 353/3/3 352/3/3 351/3/3
f 354/3/3 352/3/3 353/3/3
f 355/3/3 352/3/3 354/3/3
f 356/3/3 352/3/3 355/3/3
f 360/1/3 358/1/3 357/1/3
f 360/1/3 359/1/3 358/1/3
f 361/1/3 359/1/3 360/1/3
f 362/1/3 359/1/3 361/1/3
f 363/1/3 359/1/3 362/1/3
f 364/1/3 359/1/3 363/1/3
f 369/3/3 366/3/3 365/3/3
f 369/3/3 368/3/3 367/3/3
f 369/3/3 367/3/3 366/3/3
f 370/3/3 368/3/3 369/3/3
f 373/3/3 372/3/3 371/3/3
f 374/3/3 372/3/3 373/3/3
f 375/1/4 376/1/4 378/1/4
f 376/1/4 377/1/4 378/1/4
f 378/1/4 377/1/4 379/1/4
f 379/1/4 377/1/4 380/1/4
f 380/1/4 377/1/4 381/1/4
f 381/1/4 377/1/4 382/1/4
f 383/4/4 384/4/4 385/4/4
f 385/4/4 384/4/4 386/4/4
f 385/5/4 386/5/4 387/5/4
f 387/5/4 386/5/4 388/5/4
f 387/1/4 388/1/4 389/1/4
f 389/1/4 388/1/4 390/1/4
f 391/1/4 392/1/4 393/1/4
f 393/1/4 392/1/4 394/1/4
f 393/5/4 394/5/4 395/5/4
f 395/5/4 394/5/4 396/5/4
f 395/4/4 396/4/4 397/4/4
f 397/4/4 396/4/4 398/4/4
f 399/9/4 400/9/4 403/9/4
f 400/4/4 401/4/4 404/4/4
f 403/9/4 400/9/4 404/9/4
f 401/8/4 402/8/4 405/8/4
f 404/4/4 401/4/4 405/4/4
f 405/8/4 402/8/4 406/8/4
f 407/4/4 408/4/4 413/4/4
f 413/4/4 408/4/4 414/4/4
f 409/9/4 410/9/4 415/9/4
f 410/4/4 411/4/4 416/4/4
f 415/9/4 410/9/4 416/9/4
f 411/8/4 412/8/4 417/8/4
f 416/4/4 411/4/4 417/4/4
f 417/8/4 412/8/4 418/8/4
f 419/1/4 420/1/4 423/1/4
f 423/1/4 420/1/4 424/1/4
f 421/1/4 422/1/4 425/1/4
f 425/1/4 422/1/4 426/1/4
f 429/3/4 430/3/4 431/3/4
f 431/3/4 430/3/4 432/3/4
f 427/3/4 428/3/4 433/3/4
f 433/3/4 428/3/4 434/3/4
f 435/3/4 436/3/4 439/3/4
f 439/3/4 436/3/4 440/3/4
f 437/3/4 438/3/4 441/3/4
f 441/3/4 438/3/4 442/3/4
f 443/3/4 444/3/4 445/3/4
f 445/3/4 444/3/4 446/3/4
f 451/9/5 448/9/5 447/9/5
f 452/9/5 448/9/5 451/9/5
f 453/9/5 450/9/5 449/9/5
f 454/9/5 450/9/5 453/9/5
f 457/1/5 456/1/5 455/1/5
f 458/1/5 456/1/5 457/1/5
f 459/1/5 456/1/5 458/1/5
f 460/1/5 456/1/5 459/1/5
f 461/1/5 457/1/5 455/1/5
f 464/1/5 456/1/5 460/1/5
f 465/1/5 463/1/5 462/1/5
f 465/1/5 464/1/5 463/1/5
f 465/1/5 461/1/5 455/1/5
f 465/1/5 462/1/5 461/1/5
f 466/1/5 456/1/5 464/1/5
f 466/1/5 464/1/5 465/1/5
f 471/3/5 468/3/5 467/3/5
f 472/3/5 470/3/5 469/3/5
f 473/3/5 471/3/5 467/3/5
f 473/3/5 472/3/5 471/3/5
f 474/3/5 470/3/5 472/3/5
f 474/3/5 472/3/5 473/3/5
f 480/4/5 476/4/5 475/4/5
f 481/4/5 476/4/5 480/4/5
f 488/4/5 478/4/5 477/4/5
f 489/4/5 478/4/5 488/4/5
f 491/4/5 480/4/5 479/4/5
f 491/4/5 481/4/5 480/4/5
f 491/4/5 482/4/5 481/4/5
f 492/5/5 483/5/5 482/5/5
f 492/4/5 482/4/5 491/4/5
f 493/1/5 484/1/5 483/1/5
f 493/5/5 483/5/5 492/5/5
f 494/1/5 484/1/5 493/1/5
f 495/1/5 486/1/5 485/1/5
f 496/5/5 487/5/5 486/5/5
f 496/1/5 486/1/5 495/1/5
f 497/4/5 490/4/5 489/4/5
f 497/5/5 487/5/5 496/5/5
f 497/4/5 489/4/5 488/4/5
f 497/4/5 488/4/5 487/4/5
f 498/4/5 490/4/5 497/4/5
f 501/3/5 500/3/5 499/3/5
f 502/3/5 500/3/5 501/3/5
f 505/4/5 504/4/5 503/4/5
f 506/4/5 504/4/5 505/4/5
f 509/3/5 508/3/5 507/3/5
f 510/3/5 508/3/5 509/3/5
f 514/4/5 512/4/5 511/4/5
f 515/4/5 512/4/5 514/4/5
f 517/4/5 514/4/5 513/4/5
f 517/4/5 516/4/5 515/4/5
f 517/4/5 515/4/5 514/4/5
f 518/4/5 516/4/5 517/4/5
f 519/4/5 517/4/5 513/4/5
f 520/4/5 517/4/5 519/4/5
f 521/4/5 516/4/5 518/4/5
f 522/4/5 516/4/5 521/4/5
f 523/4/5 520/4/5 519/4/5
f 523/4/5 521/4/5 520/4/5
f 523/4/5 522/4/5 521/4/5
f 524/4/5 522/4/5 523/4/5
f 529/4/5 526/4/5 525/4/5
f 530/4/5 526/4/5 529/4/5
f 531/4/5 528/4/5 527/4/5
f 532/4/5 528/4/5 531/4/5
f 535/2/5 534/2/5 533/2/5
f 536/2/5 534/2/5 535/2/5
f 541/4/5 538/4/5 537/4/5
f 542/4/5 538/4/5 541/4/5
f 543/4/5 540/4/5 539/4/5
f 544/4/5 540/4/5 543/4/5
f 551/5/5 546/5/5 545/5/5
f 552/5/5 546/5/5 551/5/5
f 553/5/5 548/5/5 547/5/5
f 554/5/5 548/5/5 553/5/5
f 557/3/5 550/3/5 549/3/5
f 558/3/5 550/3/5 557/3/5
f 559/3/5 556/3/5 555/3/5
f 560/3/5 556/3/5 559/3/5
f 563/3/5 562/3/5 561/3/5
f 564/3/5 562/3/5 563/3/5
f 565/3/5 562/3/5 564/3/5
f 566/3/5 562/3/5 565/3/5
f 567/9/6 568/9/6 571/9/6
f 571/9/6 568/9/6 572/9/6
f 569/9/6 570/9/6 573/9/6
f 573/9/6 570/9/6 574/9/6
f 575/8/6 576/8/6 579/8/6
f 579/8/6 576/8/6 580/8/6
f 577/8/6 578/8/6 581/8/6
f 581/8/6 578/8/6 582/8/6
f 583/3/6 584/3/6 585/3/6
f 585/3/6 584/3/6 586/3/6
f 587/4/6 588/4/6 591/4/6
f 591/4/6 588/4/6 592/4/6
f 589/4/6 590/4/6 593/4/6
f 593/4/6 590/4/6 594/4/6
f 595/4/6 596/4/6 603/4/6
f 596/5/6 597/5/6 604/5/6
f 603/4/6 596/4/6 604/4/6
f 597/1/6 598/1/6 605/1/6
f 604/5/6 597/5/6 605/5/6
f 605/1/6 598/1/6 606/1/6
f 599/1/6 600/1/6 607/1/6
f 600/5/6 601/5/6 608/5/6
f 607/1/6 600/1/6 608/1/6
f 601/4/6 602/4/6 609/4/6
f 608/5/6 601/5/6 609/5/6
f 609/4/6 602/4/6 610/4/6
f 611/1/6 612/1/6 613/1/6
f 613/1/6 612/1/6 614/1/6
f 614/1/6 612/1/6 615/1/6
f 615/1/6 612/1/6 616/1/6
f 611/1/6 613/1/6 617/1/6
f 613/4/6 614/4/6 618/4/6
f 617/1/6 613/1/6 618/1/6
f 618/4/6 614/4/6 619/4/6
f 615/4/6 616/4/6 620/4/6
f 616/1/6 612/1/6 621/1/6
f 620/4/6 616/4/6 621/4/6
f 621/1/6 612/1/6 622/1/6
f 619/1/6 620/1/6 623/1/6
f 618/1/6 619/1/6 623/1/6
f 621/1/6 622/1/6 623/1/6
f 620/1/6 621/1/6 623/1/6
f 617/1/6 618/1/6 623/1/6
f 623/1/6 622/1/6 624/1/6
f 625/2/6 626/2/6 627/2/6
f 627/2/6 626/2/6 628/2/6
f 629/5/6 630/5/6 633/5/6
f 633/5/6 630/5/6 634/5/6
f 631/5/6 632/5/6 635/5/6
f 635/5/6 632/5/6 636/5/6
f 637/3/6 638/3/6 639/3/6
f 639/3/6 638/3/6 640/3/6
f 641/3/6 642/3/6 643/3/6
f 643/3/6 642/3/6 644/3/6
f 645/3/6 646/3/6 647/3/6
f 647/3/6 646/3/6 648/3/6
f 645/3/6 647/3/6 649/3/6
f 648/3/6 646/3/6 650/3/6
f 645/3/6 649/3/6 651/3/6
f 649/3/6 650/3/6 651/3/6
f 650/3/6 646/3/6 652/3/6
f 651/3/6 650/3/6 652/3/6
f 653/3/6 654/3/6 655/3/6
f 655/3/6 654/3/6 656/3/6
