# MagicaVoxel @ Ephtracy

# material
mtllib Flag-Banner.mtl
usemtl palette

# normals
vn -1 0 0
vn 1 0 0
vn 0 0 1
vn 0 0 -1
vn 0 -1 0
vn 0 1 0

# texcoords
vt 0.373047 0.5
vt 0.396484 0.5
vt 0.814453 0.5
vt 0.837891 0.5
vt 0.939453 0.5

# verts
v -8.5 22 -1.5
v -8.5 22 -2.5
v -8.5 33 -1.5
v -8.5 33 -2.5
v -8.5 35 -1.5
v -8.5 35 -2.5
v -8.5 37 -1.5
v -8.5 37 -2.5
v -7.5 21 -1.5
v -7.5 21 -2.5
v -7.5 22 -1.5
v -7.5 22 -2.5
v -7.5 33 -1.5
v -7.5 33 -2.5
v -7.5 34 -1.5
v -7.5 34 -2.5
v -6.5 20 -1.5
v -6.5 20 -2.5
v -6.5 21 -1.5
v -6.5 21 -2.5
v -6.5 34 -1.5
v -6.5 34 -2.5
v -6.5 35 -1.5
v -6.5 35 -2.5
v -6.5 37 -1.5
v -6.5 37 -2.5
v -6.5 38 -1.5
v -6.5 38 -2.5
v -5.5 19 -1.5
v -5.5 19 -2.5
v -5.5 20 -1.5
v -5.5 20 -2.5
v -4.5 18 -1.5
v -4.5 18 -2.5
v -4.5 19 -1.5
v -4.5 19 -2.5
v -3.5 17 -1.5
v -3.5 17 -2.5
v -3.5 18 -1.5
v -3.5 18 -2.5
v -2.5 16 -1.5
v -2.5 16 -2.5
v -2.5 17 -1.5
v -2.5 17 -2.5
v -1.5 0 0.5
v -1.5 0 -1.5
v -1.5 16 -1.5
v -1.5 17 -1.5
v -1.5 33 -1.5
v -1.5 34 -1.5
v -1.5 35 0.5
v -1.5 35 -1.5
v -1.5 36 0.5
v -1.5 36 -1.5
v -1.5 37 -1.5
v -1.5 38 0.5
v -1.5 38 -1.5
v -1.5 39 0.5
v -1.5 39 -1.5
v 4.5 34 -1.5
v 4.5 34 -2.5
v 4.5 35 -1.5
v 4.5 35 -2.5
v 4.5 37 -1.5
v 4.5 37 -2.5
v 4.5 38 -1.5
v 4.5 38 -2.5
v -5.5 34 -1.5
v -5.5 34 -2.5
v -5.5 35 -1.5
v -5.5 35 -2.5
v -5.5 37 -1.5
v -5.5 37 -2.5
v -5.5 38 -1.5
v -5.5 38 -2.5
v 0.5 0 0.5
v 0.5 0 -1.5
v 0.5 16 -1.5
v 0.5 17 -1.5
v 0.5 33 -1.5
v 0.5 34 -1.5
v 0.5 35 -1.5
v 0.5 36 0.5
v 0.5 36 -1.5
v 0.5 37 0.5
v 0.5 37 -1.5
v 0.5 38 0.5
v 0.5 38 -1.5
v 0.5 39 0.5
v 0.5 39 -1.5
v 1.5 16 -1.5
v 1.5 16 -2.5
v 1.5 17 -1.5
v 1.5 17 -2.5
v 2.5 17 -1.5
v 2.5 17 -2.5
v 2.5 18 -1.5
v 2.5 18 -2.5
v 3.5 18 -1.5
v 3.5 18 -2.5
v 3.5 19 -1.5
v 3.5 19 -2.5
v 4.5 19 -1.5
v 4.5 19 -2.5
v 4.5 20 -1.5
v 4.5 20 -2.5
v 5.5 20 -1.5
v 5.5 20 -2.5
v 5.5 21 -1.5
v 5.5 21 -2.5
v 5.5 34 -1.5
v 5.5 34 -2.5
v 5.5 35 -1.5
v 5.5 35 -2.5
v 5.5 37 -1.5
v 5.5 37 -2.5
v 5.5 38 -1.5
v 5.5 38 -2.5
v 6.5 21 -1.5
v 6.5 21 -2.5
v 6.5 22 -1.5
v 6.5 22 -2.5
v 6.5 33 -1.5
v 6.5 33 -2.5
v 6.5 34 -1.5
v 6.5 34 -2.5
v 7.5 22 -1.5
v 7.5 22 -2.5
v 7.5 33 -1.5
v 7.5 33 -2.5
v 7.5 35 -1.5
v 7.5 35 -2.5
v 7.5 37 -1.5
v 7.5 37 -2.5
v -1.5 0 0.5
v -1.5 35 0.5
v -1.5 36 0.5
v -1.5 38 0.5
v -1.5 39 0.5
v -0.5 35 0.5
v -0.5 36 0.5
v -0.5 37 0.5
v 0.5 0 0.5
v 0.5 36 0.5
v 0.5 37 0.5
v 0.5 38 0.5
v 0.5 39 0.5
v -8.5 22 -1.5
v -8.5 33 -1.5
v -8.5 35 -1.5
v -8.5 37 -1.5
v -7.5 21 -1.5
v -7.5 22 -1.5
v -7.5 33 -1.5
v -7.5 34 -1.5
v -7.5 35 -1.5
v -7.5 37 -1.5
v -6.5 20 -1.5
v -6.5 21 -1.5
v -6.5 22 -1.5
v -6.5 34 -1.5
v -6.5 35 -1.5
v -6.5 37 -1.5
v -6.5 38 -1.5
v -5.5 19 -1.5
v -5.5 20 -1.5
v -5.5 21 -1.5
v -5.5 34 -1.5
v -5.5 35 -1.5
v -5.5 37 -1.5
v -5.5 38 -1.5
v -4.5 18 -1.5
v -4.5 19 -1.5
v -4.5 20 -1.5
v -3.5 17 -1.5
v -3.5 18 -1.5
v -3.5 19 -1.5
v -2.5 16 -1.5
v -2.5 17 -1.5
v -2.5 18 -1.5
v -1.5 16 -1.5
v -1.5 17 -1.5
v -1.5 33 -1.5
v -1.5 34 -1.5
v -1.5 35 -1.5
v -1.5 36 -1.5
v -1.5 37 -1.5
v 0.5 16 -1.5
v 0.5 17 -1.5
v 0.5 33 -1.5
v 0.5 34 -1.5
v 0.5 35 -1.5
v 0.5 36 -1.5
v 0.5 37 -1.5
v 1.5 16 -1.5
v 1.5 17 -1.5
v 1.5 18 -1.5
v 2.5 17 -1.5
v 2.5 18 -1.5
v 2.5 19 -1.5
v 3.5 18 -1.5
v 3.5 19 -1.5
v 3.5 20 -1.5
v 4.5 19 -1.5
v 4.5 20 -1.5
v 4.5 21 -1.5
v 4.5 34 -1.5
v 4.5 35 -1.5
v 4.5 37 -1.5
v 4.5 38 -1.5
v 5.5 20 -1.5
v 5.5 21 -1.5
v 5.5 22 -1.5
v 5.5 34 -1.5
v 5.5 35 -1.5
v 5.5 37 -1.5
v 5.5 38 -1.5
v 6.5 21 -1.5
v 6.5 22 -1.5
v 6.5 33 -1.5
v 6.5 34 -1.5
v 6.5 35 -1.5
v 6.5 37 -1.5
v 7.5 22 -1.5
v 7.5 33 -1.5
v 7.5 35 -1.5
v 7.5 37 -1.5
v -1.5 0 -1.5
v -1.5 16 -1.5
v -1.5 34 -1.5
v -1.5 35 -1.5
v -1.5 37 -1.5
v -1.5 38 -1.5
v -1.5 39 -1.5
v -0.5 35 -1.5
v -0.5 37 -1.5
v 0.5 0 -1.5
v 0.5 16 -1.5
v 0.5 34 -1.5
v 0.5 35 -1.5
v 0.5 37 -1.5
v 0.5 38 -1.5
v 0.5 39 -1.5
v -8.5 22 -2.5
v -8.5 33 -2.5
v -8.5 35 -2.5
v -8.5 37 -2.5
v -7.5 21 -2.5
v -7.5 22 -2.5
v -7.5 33 -2.5
v -7.5 34 -2.5
v -7.5 35 -2.5
v -7.5 37 -2.5
v -6.5 20 -2.5
v -6.5 21 -2.5
v -6.5 22 -2.5
v -6.5 34 -2.5
v -6.5 35 -2.5
v -6.5 37 -2.5
v -6.5 38 -2.5
v -5.5 19 -2.5
v -5.5 20 -2.5
v -5.5 21 -2.5
v -5.5 34 -2.5
v -5.5 35 -2.5
v -5.5 37 -2.5
v -5.5 38 -2.5
v -4.5 18 -2.5
v -4.5 19 -2.5
v -4.5 20 -2.5
v -3.5 17 -2.5
v -3.5 18 -2.5
v -3.5 19 -2.5
v -2.5 16 -2.5
v -2.5 17 -2.5
v -2.5 18 -2.5
v -1.5 35 -2.5
v -1.5 36 -2.5
v -0.5 35 -2.5
v -0.5 36 -2.5
v -0.5 37 -2.5
v 0.5 36 -2.5
v 0.5 37 -2.5
v 1.5 16 -2.5
v 1.5 17 -2.5
v 1.5 18 -2.5
v 2.5 17 -2.5
v 2.5 18 -2.5
v 2.5 19 -2.5
v 3.5 18 -2.5
v 3.5 19 -2.5
v 3.5 20 -2.5
v 4.5 19 -2.5
v 4.5 20 -2.5
v 4.5 21 -2.5
v 4.5 34 -2.5
v 4.5 35 -2.5
v 4.5 37 -2.5
v 4.5 38 -2.5
v 5.5 20 -2.5
v 5.5 21 -2.5
v 5.5 22 -2.5
v 5.5 34 -2.5
v 5.5 35 -2.5
v 5.5 37 -2.5
v 5.5 38 -2.5
v 6.5 21 -2.5
v 6.5 22 -2.5
v 6.5 33 -2.5
v 6.5 34 -2.5
v 6.5 35 -2.5
v 6.5 37 -2.5
v 7.5 22 -2.5
v 7.5 33 -2.5
v 7.5 35 -2.5
v 7.5 37 -2.5
v -1.5 0 0.5
v 0.5 0 0.5
v -1.5 0 -1.5
v 0.5 0 -1.5
v -2.5 16 -1.5
v -1.5 16 -1.5
v 0.5 16 -1.5
v 1.5 16 -1.5
v -2.5 16 -2.5
v 1.5 16 -2.5
v -3.5 17 -1.5
v -2.5 17 -1.5
v 1.5 17 -1.5
v 2.5 17 -1.5
v -3.5 17 -2.5
v -2.5 17 -2.5
v 1.5 17 -2.5
v 2.5 17 -2.5
v -4.5 18 -1.5
v -3.5 18 -1.5
v 2.5 18 -1.5
v 3.5 18 -1.5
v -4.5 18 -2.5
v -3.5 18 -2.5
v 2.5 18 -2.5
v 3.5 18 -2.5
v -5.5 19 -1.5
v -4.5 19 -1.5
v 3.5 19 -1.5
v 4.5 19 -1.5
v -5.5 19 -2.5
v -4.5 19 -2.5
v 3.5 19 -2.5
v 4.5 19 -2.5
v -6.5 20 -1.5
v -5.5 20 -1.5
v 4.5 20 -1.5
v 5.5 20 -1.5
v -6.5 20 -2.5
v -5.5 20 -2.5
v 4.5 20 -2.5
v 5.5 20 -2.5
v -7.5 21 -1.5
v -6.5 21 -1.5
v 5.5 21 -1.5
v 6.5 21 -1.5
v -7.5 21 -2.5
v -6.5 21 -2.5
v 5.5 21 -2.5
v 6.5 21 -2.5
v -8.5 22 -1.5
v -7.5 22 -1.5
v 6.5 22 -1.5
v 7.5 22 -1.5
v -8.5 22 -2.5
v -7.5 22 -2.5
v 6.5 22 -2.5
v 7.5 22 -2.5
v -8.5 35 -1.5
v -7.5 35 -1.5
v -6.5 35 -1.5
v -5.5 35 -1.5
v -1.5 35 -1.5
v -0.5 35 -1.5
v 0.5 35 -1.5
v 4.5 35 -1.5
v 5.5 35 -1.5
v 6.5 35 -1.5
v 7.5 35 -1.5
v -8.5 35 -2.5
v -7.5 35 -2.5
v -6.5 35 -2.5
v -5.5 35 -2.5
v -1.5 35 -2.5
v -0.5 35 -2.5
v 4.5 35 -2.5
v 5.5 35 -2.5
v 6.5 35 -2.5
v 7.5 35 -2.5
v -8.5 33 -1.5
v -7.5 33 -1.5
v 6.5 33 -1.5
v 7.5 33 -1.5
v -8.5 33 -2.5
v -7.5 33 -2.5
v 6.5 33 -2.5
v 7.5 33 -2.5
v -7.5 34 -1.5
v -6.5 34 -1.5
v -5.5 34 -1.5
v -1.5 34 -1.5
v 0.5 34 -1.5
v 4.5 34 -1.5
v 5.5 34 -1.5
v 6.5 34 -1.5
v -7.5 34 -2.5
v -6.5 34 -2.5
v -5.5 34 -2.5
v 4.5 34 -2.5
v 5.5 34 -2.5
v 6.5 34 -2.5
v -8.5 37 -1.5
v -7.5 37 -1.5
v -6.5 37 -1.5
v -5.5 37 -1.5
v -1.5 37 -1.5
v -0.5 37 -1.5
v 0.5 37 -1.5
v 4.5 37 -1.5
v 5.5 37 -1.5
v 6.5 37 -1.5
v 7.5 37 -1.5
v -8.5 37 -2.5
v -7.5 37 -2.5
v -6.5 37 -2.5
v -5.5 37 -2.5
v -0.5 37 -2.5
v 0.5 37 -2.5
v 4.5 37 -2.5
v 5.5 37 -2.5
v 6.5 37 -2.5
v 7.5 37 -2.5
v -6.5 38 -1.5
v -5.5 38 -1.5
v 4.5 38 -1.5
v 5.5 38 -1.5
v -6.5 38 -2.5
v -5.5 38 -2.5
v 4.5 38 -2.5
v 5.5 38 -2.5
v -1.5 39 0.5
v 0.5 39 0.5
v -1.5 39 -1.5
v 0.5 39 -1.5

# faces
f 3/4/1 2/4/1 1/4/1
f 4/4/1 2/4/1 3/4/1
f 7/1/1 6/1/1 5/1/1
f 8/1/1 6/1/1 7/1/1
f 11/4/1 10/4/1 9/4/1
f 12/4/1 10/4/1 11/4/1
f 15/4/1 14/4/1 13/4/1
f 16/4/1 14/4/1 15/4/1
f 19/4/1 18/4/1 17/4/1
f 20/4/1 18/4/1 19/4/1
f 23/5/1 22/5/1 21/5/1
f 24/5/1 22/5/1 23/5/1
f 27/4/1 26/4/1 25/4/1
f 28/4/1 26/4/1 27/4/1
f 31/4/1 30/4/1 29/4/1
f 32/4/1 30/4/1 31/4/1
f 35/4/1 34/4/1 33/4/1
f 36/4/1 34/4/1 35/4/1
f 39/4/1 38/4/1 37/4/1
f 40/4/1 38/4/1 39/4/1
f 43/4/1 42/4/1 41/4/1
f 44/4/1 42/4/1 43/4/1
f 47/2/1 46/2/1 45/2/1
f 48/2/1 47/2/1 45/2/1
f 49/2/1 48/2/1 45/2/1
f 50/2/1 49/2/1 45/2/1
f 51/2/1 50/2/1 45/2/1
f 52/2/1 50/2/1 51/2/1
f 53/3/1 52/3/1 51/3/1
f 54/3/1 52/3/1 53/3/1
f 55/2/1 54/2/1 53/2/1
f 56/2/1 55/2/1 53/2/1
f 57/2/1 55/2/1 56/2/1
f 58/1/1 57/1/1 56/1/1
f 59/1/1 57/1/1 58/1/1
f 62/5/1 61/5/1 60/5/1
f 63/5/1 61/5/1 62/5/1
f 66/4/1 65/4/1 64/4/1
f 67/4/1 65/4/1 66/4/1
f 68/5/2 69/5/2 70/5/2
f 70/5/2 69/5/2 71/5/2
f 72/4/2 73/4/2 74/4/2
f 74/4/2 73/4/2 75/4/2
f 76/2/2 77/2/2 78/2/2
f 76/2/2 78/2/2 79/2/2
f 76/2/2 79/2/2 80/2/2
f 76/2/2 80/2/2 81/2/2
f 76/2/2 81/2/2 82/2/2
f 76/2/2 82/2/2 83/2/2
f 83/2/2 82/2/2 84/2/2
f 83/3/2 84/3/2 85/3/2
f 85/3/2 84/3/2 86/3/2
f 85/2/2 86/2/2 87/2/2
f 87/2/2 86/2/2 88/2/2
f 87/1/2 88/1/2 89/1/2
f 89/1/2 88/1/2 90/1/2
f 91/4/2 92/4/2 93/4/2
f 93/4/2 92/4/2 94/4/2
f 95/4/2 96/4/2 97/4/2
f 97/4/2 96/4/2 98/4/2
f 99/4/2 100/4/2 101/4/2
f 101/4/2 100/4/2 102/4/2
f 103/4/2 104/4/2 105/4/2
f 105/4/2 104/4/2 106/4/2
f 107/4/2 108/4/2 109/4/2
f 109/4/2 108/4/2 110/4/2
f 111/5/2 112/5/2 113/5/2
f 113/5/2 112/5/2 114/5/2
f 115/4/2 116/4/2 117/4/2
f 117/4/2 116/4/2 118/4/2
f 119/4/2 120/4/2 121/4/2
f 121/4/2 120/4/2 122/4/2
f 123/4/2 124/4/2 125/4/2
f 125/4/2 124/4/2 126/4/2
f 127/4/2 128/4/2 129/4/2
f 129/4/2 128/4/2 130/4/2
f 131/1/2 132/1/2 133/1/2
f 133/1/2 132/1/2 134/1/2
f 140/2/3 136/2/3 135/2/3
f 140/3/3 137/3/3 136/3/3
f 141/2/3 138/2/3 137/2/3
f 141/3/3 137/3/3 140/3/3
f 142/2/3 138/2/3 141/2/3
f 143/2/3 140/2/3 135/2/3
f 143/2/3 141/2/3 140/2/3
f 144/3/3 142/3/3 141/3/3
f 144/2/3 141/2/3 143/2/3
f 145/2/3 138/2/3 142/2/3
f 145/3/3 142/3/3 144/3/3
f 146/1/3 139/1/3 138/1/3
f 146/2/3 138/2/3 145/2/3
f 147/1/3 139/1/3 146/1/3
f 153/4/3 149/4/3 148/4/3
f 154/4/3 149/4/3 153/4/3
f 156/1/3 151/1/3 150/1/3
f 157/1/3 151/1/3 156/1/3
f 159/4/3 153/4/3 152/4/3
f 160/5/3 154/5/3 153/5/3
f 160/4/3 153/4/3 159/4/3
f 161/4/3 155/4/3 154/4/3
f 162/2/3 157/2/3 156/2/3
f 163/2/3 157/2/3 162/2/3
f 166/4/3 159/4/3 158/4/3
f 167/5/3 160/5/3 159/5/3
f 167/4/3 159/4/3 166/4/3
f 168/5/3 163/5/3 162/5/3
f 168/4/3 161/4/3 154/4/3
f 168/5/3 162/5/3 161/5/3
f 169/5/3 163/5/3 168/5/3
f 170/4/3 164/4/3 163/4/3
f 170/5/3 163/5/3 169/5/3
f 171/4/3 164/4/3 170/4/3
f 173/4/3 166/4/3 165/4/3
f 174/5/3 167/5/3 166/5/3
f 174/4/3 166/4/3 173/4/3
f 176/4/3 173/4/3 172/4/3
f 177/5/3 174/5/3 173/5/3
f 177/4/3 173/4/3 176/4/3
f 179/4/3 176/4/3 175/4/3
f 180/5/3 177/5/3 176/5/3
f 180/4/3 176/4/3 179/4/3
f 181/4/3 179/4/3 178/4/3
f 182/5/3 180/5/3 179/5/3
f 182/4/3 179/4/3 181/4/3
f 183/5/3 154/5/3 160/5/3
f 183/5/3 180/5/3 182/5/3
f 183/5/3 160/5/3 167/5/3
f 183/5/3 167/5/3 174/5/3
f 183/4/3 168/4/3 154/4/3
f 183/5/3 177/5/3 180/5/3
f 183/5/3 174/5/3 177/5/3
f 184/4/3 168/4/3 183/4/3
f 185/2/3 170/2/3 169/2/3
f 186/2/3 170/2/3 185/2/3
f 187/2/3 170/2/3 186/2/3
f 195/4/3 189/4/3 188/4/3
f 196/5/3 190/5/3 189/5/3
f 196/4/3 189/4/3 195/4/3
f 197/5/3 190/5/3 196/5/3
f 198/4/3 197/4/3 196/4/3
f 199/5/3 190/5/3 197/5/3
f 199/4/3 197/4/3 198/4/3
f 200/5/3 190/5/3 199/5/3
f 201/4/3 200/4/3 199/4/3
f 202/5/3 190/5/3 200/5/3
f 202/4/3 200/4/3 201/4/3
f 203/5/3 190/5/3 202/5/3
f 204/4/3 203/4/3 202/4/3
f 205/5/3 190/5/3 203/5/3
f 205/4/3 203/4/3 204/4/3
f 206/5/3 190/5/3 205/5/3
f 207/4/3 191/4/3 190/4/3
f 208/2/3 194/2/3 193/2/3
f 208/2/3 193/2/3 192/2/3
f 209/2/3 194/2/3 208/2/3
f 211/4/3 206/4/3 205/4/3
f 212/5/3 190/5/3 206/5/3
f 212/4/3 206/4/3 211/4/3
f 213/5/3 190/5/3 212/5/3
f 214/5/3 209/5/3 208/5/3
f 214/4/3 207/4/3 190/4/3
f 214/5/3 208/5/3 207/5/3
f 215/5/3 209/5/3 214/5/3
f 216/4/3 210/4/3 209/4/3
f 216/5/3 209/5/3 215/5/3
f 217/4/3 210/4/3 216/4/3
f 218/4/3 213/4/3 212/4/3
f 219/5/3 190/5/3 213/5/3
f 219/4/3 213/4/3 218/4/3
f 220/4/3 214/4/3 190/4/3
f 220/5/3 190/5/3 219/5/3
f 221/4/3 214/4/3 220/4/3
f 222/2/3 216/2/3 215/2/3
f 223/2/3 216/2/3 222/2/3
f 224/4/3 220/4/3 219/4/3
f 225/4/3 220/4/3 224/4/3
f 226/1/3 223/1/3 222/1/3
f 227/1/3 223/1/3 226/1/3
f 230/2/4 231/2/4 235/2/4
f 232/2/4 233/2/4 236/2/4
f 228/2/4 229/2/4 237/2/4
f 237/2/4 229/2/4 238/2/4
f 230/2/4 235/2/4 239/2/4
f 239/2/4 235/2/4 240/2/4
f 236/2/4 233/2/4 241/2/4
f 233/1/4 234/1/4 242/1/4
f 241/2/4 233/2/4 242/2/4
f 242/1/4 234/1/4 243/1/4
f 244/4/4 245/4/4 249/4/4
f 249/4/4 245/4/4 250/4/4
f 246/1/4 247/1/4 252/1/4
f 252/1/4 247/1/4 253/1/4
f 248/4/4 249/4/4 255/4/4
f 249/5/4 250/5/4 256/5/4
f 255/4/4 249/4/4 256/4/4
f 250/4/4 251/4/4 257/4/4
f 252/2/4 253/2/4 258/2/4
f 258/2/4 253/2/4 259/2/4
f 254/4/4 255/4/4 262/4/4
f 255/5/4 256/5/4 263/5/4
f 262/4/4 255/4/4 263/4/4
f 258/5/4 259/5/4 264/5/4
f 250/4/4 257/4/4 264/4/4
f 257/5/4 258/5/4 264/5/4
f 264/5/4 259/5/4 265/5/4
f 259/4/4 260/4/4 266/4/4
f 265/5/4 259/5/4 266/5/4
f 266/4/4 260/4/4 267/4/4
f 261/4/4 262/4/4 269/4/4
f 262/5/4 263/5/4 270/5/4
f 269/4/4 262/4/4 270/4/4
f 268/4/4 269/4/4 272/4/4
f 269/5/4 270/5/4 273/5/4
f 272/4/4 269/4/4 273/4/4
f 271/4/4 272/4/4 275/4/4
f 272/5/4 273/5/4 276/5/4
f 275/4/4 272/4/4 276/4/4
f 265/2/4 266/2/4 277/2/4
f 277/2/4 266/2/4 278/2/4
f 277/3/4 278/3/4 279/3/4
f 278/2/4 266/2/4 280/2/4
f 279/3/4 278/3/4 280/3/4
f 280/2/4 266/2/4 281/2/4
f 279/2/4 280/2/4 282/2/4
f 280/3/4 281/3/4 282/3/4
f 282/3/4 281/3/4 283/3/4
f 274/4/4 275/4/4 284/4/4
f 275/5/4 276/5/4 285/5/4
f 284/4/4 275/4/4 285/4/4
f 276/5/4 273/5/4 286/5/4
f 285/5/4 276/5/4 286/5/4
f 285/4/4 286/4/4 287/4/4
f 286/5/4 273/5/4 288/5/4
f 287/4/4 286/4/4 288/4/4
f 273/5/4 270/5/4 289/5/4
f 288/5/4 273/5/4 289/5/4
f 288/4/4 289/4/4 290/4/4
f 289/5/4 270/5/4 291/5/4
f 290/4/4 289/4/4 291/4/4
f 270/5/4 263/5/4 292/5/4
f 291/5/4 270/5/4 292/5/4
f 291/4/4 292/4/4 293/4/4
f 292/5/4 263/5/4 294/5/4
f 293/4/4 292/4/4 294/4/4
f 263/5/4 256/5/4 295/5/4
f 294/5/4 263/5/4 295/5/4
f 250/4/4 264/4/4 296/4/4
f 279/2/4 282/2/4 297/2/4
f 282/2/4 283/2/4 297/2/4
f 297/2/4 283/2/4 298/2/4
f 294/4/4 295/4/4 300/4/4
f 295/5/4 256/5/4 301/5/4
f 300/4/4 295/4/4 301/4/4
f 256/5/4 250/5/4 302/5/4
f 301/5/4 256/5/4 302/5/4
f 297/5/4 298/5/4 303/5/4
f 296/5/4 297/5/4 303/5/4
f 250/4/4 296/4/4 303/4/4
f 303/5/4 298/5/4 304/5/4
f 298/4/4 299/4/4 305/4/4
f 304/5/4 298/5/4 305/5/4
f 305/4/4 299/4/4 306/4/4
f 301/4/4 302/4/4 307/4/4
f 302/5/4 250/5/4 308/5/4
f 307/4/4 302/4/4 308/4/4
f 250/4/4 303/4/4 309/4/4
f 308/5/4 250/5/4 309/5/4
f 309/4/4 303/4/4 310/4/4
f 304/2/4 305/2/4 311/2/4
f 311/2/4 305/2/4 312/2/4
f 308/4/4 309/4/4 313/4/4
f 313/4/4 309/4/4 314/4/4
f 311/1/4 312/1/4 315/1/4
f 315/1/4 312/1/4 316/1/4
f 319/2/5 318/2/5 317/2/5
f 320/2/5 318/2/5 319/2/5
f 325/4/5 322/4/5 321/4/5
f 325/4/5 324/4/5 323/4/5
f 325/4/5 323/4/5 322/4/5
f 326/4/5 324/4/5 325/4/5
f 331/4/5 328/4/5 327/4/5
f 332/4/5 328/4/5 331/4/5
f 333/4/5 330/4/5 329/4/5
f 334/4/5 330/4/5 333/4/5
f 339/4/5 336/4/5 335/4/5
f 340/4/5 336/4/5 339/4/5
f 341/4/5 338/4/5 337/4/5
f 342/4/5 338/4/5 341/4/5
f 347/4/5 344/4/5 343/4/5
f 348/4/5 344/4/5 347/4/5
f 349/4/5 346/4/5 345/4/5
f 350/4/5 346/4/5 349/4/5
f 355/4/5 352/4/5 351/4/5
f 356/4/5 352/4/5 355/4/5
f 357/4/5 354/4/5 353/4/5
f 358/4/5 354/4/5 357/4/5
f 363/4/5 360/4/5 359/4/5
f 364/4/5 360/4/5 363/4/5
f 365/4/5 362/4/5 361/4/5
f 366/4/5 362/4/5 365/4/5
f 371/4/5 368/4/5 367/4/5
f 372/4/5 368/4/5 371/4/5
f 373/4/5 370/4/5 369/4/5
f 374/4/5 370/4/5 373/4/5
f 386/1/5 376/1/5 375/1/5
f 387/2/5 377/2/5 376/2/5
f 387/1/5 376/1/5 386/1/5
f 388/2/5 377/2/5 387/2/5
f 389/2/5 379/2/5 378/2/5
f 390/3/5 380/3/5 379/3/5
f 390/2/5 379/2/5 389/2/5
f 391/2/5 381/2/5 380/2/5
f 391/3/5 380/3/5 390/3/5
f 391/2/5 382/2/5 381/2/5
f 392/2/5 382/2/5 391/2/5
f 393/2/5 384/2/5 383/2/5
f 394/1/5 385/1/5 384/1/5
f 394/2/5 384/2/5 393/2/5
f 395/1/5 385/1/5 394/1/5
f 396/4/6 397/4/6 400/4/6
f 400/4/6 397/4/6 401/4/6
f 398/4/6 399/4/6 402/4/6
f 402/4/6 399/4/6 403/4/6
f 404/4/6 405/4/6 412/4/6
f 412/4/6 405/4/6 413/4/6
f 406/4/6 407/4/6 414/4/6
f 407/4/6 408/4/6 414/4/6
f 408/4/6 409/4/6 414/4/6
f 414/4/6 409/4/6 415/4/6
f 410/4/6 411/4/6 416/4/6
f 416/4/6 411/4/6 417/4/6
f 418/1/6 419/1/6 429/1/6
f 419/2/6 420/2/6 430/2/6
f 429/1/6 419/1/6 430/1/6
f 430/2/6 420/2/6 431/2/6
f 421/2/6 422/2/6 432/2/6
f 422/2/6 423/2/6 432/2/6
f 423/3/6 424/3/6 433/3/6
f 432/2/6 423/2/6 433/2/6
f 424/2/6 425/2/6 434/2/6
f 433/3/6 424/3/6 434/3/6
f 434/2/6 425/2/6 435/2/6
f 426/2/6 427/2/6 436/2/6
f 427/1/6 428/1/6 437/1/6
f 436/2/6 427/2/6 437/2/6
f 437/1/6 428/1/6 438/1/6
f 439/4/6 440/4/6 443/4/6
f 443/4/6 440/4/6 444/4/6
f 441/4/6 442/4/6 445/4/6
f 445/4/6 442/4/6 446/4/6
f 447/1/6 448/1/6 449/1/6
f 449/1/6 448/1/6 450/1/6
