# MagicaVoxel @ Ephtracy

# material
mtllib Flag.mtl
usemtl palette

# normals
vn -1 0 0
vn 1 0 0
vn 0 0 1
vn 0 0 -1
vn 0 -1 0
vn 0 1 0

# texcoords
vt 0.306641 0.5
vt 0.970703 0.5
vt 0.974609 0.5

# verts
v -9 22 -0
v -9 22 -2
v -9 33 -0
v -9 33 -1
v -9 34 -1
v -9 34 -2
v -9 35 -0
v -9 35 -2
v -9 37 -0
v -9 37 -1
v -9 38 -1
v -9 38 -2
v -8 21 -0
v -8 21 -2
v -8 22 -0
v -8 22 -2
v -8 33 -0
v -8 33 -1
v -8 34 -0
v -8 34 -1
v -8 34 -2
v -8 35 -1
v -8 35 -2
v -7 20 -0
v -7 20 -2
v -7 21 -0
v -7 21 -2
v -7 34 -0
v -7 34 -1
v -7 35 -0
v -7 35 -1
v -7 37 -0
v -7 37 -1
v -7 38 -0
v -7 38 -1
v -7 38 -2
v -7 39 -1
v -7 39 -2
v -6 19 -0
v -6 19 -2
v -6 20 -0
v -6 20 -2
v -5 18 -0
v -5 18 -2
v -5 19 -0
v -5 19 -2
v -4 17 -0
v -4 17 -2
v -4 18 -0
v -4 18 -2
v -3 16 -0
v -3 16 -2
v -3 17 -0
v -3 17 -2
v -2 0 2
v -2 0 -1
v -2 16 -0
v -2 16 -1
v -2 34 -0
v -2 34 -1
v -2 35 -0
v -2 35 -1
v -2 37 -0
v -2 37 -1
v -2 38 -1
v -2 39 2
v -2 39 1
v -2 40 1
v -2 40 -1
v 0 1 1
v 0 1 -0
v 0 16 -0
v 0 16 -1
v 0 34 -0
v 0 34 -1
v 0 35 -0
v 0 35 -1
v 0 37 -0
v 0 37 -1
v 0 38 -0
v 0 39 1
v 0 39 -0
v 4 34 -0
v 4 34 -1
v 4 35 -0
v 4 35 -1
v 4 37 -0
v 4 37 -1
v 4 38 -0
v 4 38 -1
v 4 38 -2
v 4 39 -1
v 4 39 -2
v -5 34 -0
v -5 34 -1
v -5 35 -0
v -5 35 -1
v -5 37 -0
v -5 37 -1
v -5 38 -0
v -5 38 -1
v -5 38 -2
v -5 39 -1
v -5 39 -2
v -1 1 1
v -1 1 -0
v -1 16 -0
v -1 16 -1
v -1 34 -0
v -1 34 -1
v -1 35 -0
v -1 35 -1
v -1 37 -0
v -1 37 -1
v -1 38 -0
v -1 39 1
v -1 39 -0
v 1 0 2
v 1 0 -1
v 1 16 -0
v 1 16 -1
v 1 34 -0
v 1 34 -1
v 1 35 -0
v 1 35 -1
v 1 37 -0
v 1 37 -1
v 1 38 -1
v 1 39 2
v 1 39 1
v 1 40 1
v 1 40 -1
v 2 16 -0
v 2 16 -2
v 2 17 -0
v 2 17 -2
v 3 17 -0
v 3 17 -2
v 3 18 -0
v 3 18 -2
v 4 18 -0
v 4 18 -2
v 4 19 -0
v 4 19 -2
v 5 19 -0
v 5 19 -2
v 5 20 -0
v 5 20 -2
v 6 20 -0
v 6 20 -2
v 6 21 -0
v 6 21 -2
v 6 34 -0
v 6 34 -1
v 6 35 -0
v 6 35 -1
v 6 37 -0
v 6 37 -1
v 6 38 -0
v 6 38 -1
v 6 38 -2
v 6 39 -1
v 6 39 -2
v 7 21 -0
v 7 21 -2
v 7 22 -0
v 7 22 -2
v 7 33 -0
v 7 33 -1
v 7 34 -0
v 7 34 -1
v 7 34 -2
v 7 35 -1
v 7 35 -2
v 8 22 -0
v 8 22 -2
v 8 33 -0
v 8 33 -1
v 8 34 -1
v 8 34 -2
v 8 35 -0
v 8 35 -2
v 8 37 -0
v 8 37 -1
v 8 38 -1
v 8 38 -2
v -2 0 2
v -2 39 2
v 1 0 2
v 1 39 2
v -2 39 1
v -2 40 1
v 1 39 1
v 1 40 1
v -9 22 -0
v -9 33 -0
v -9 35 -0
v -9 37 -0
v -8 21 -0
v -8 22 -0
v -8 33 -0
v -8 34 -0
v -7 20 -0
v -7 21 -0
v -7 34 -0
v -7 35 -0
v -7 37 -0
v -7 38 -0
v -6 19 -0
v -6 20 -0
v -5 18 -0
v -5 19 -0
v -5 34 -0
v -5 35 -0
v -5 37 -0
v -5 38 -0
v -4 17 -0
v -4 18 -0
v -3 16 -0
v -3 17 -0
v -2 16 -0
v -2 34 -0
v -2 35 -0
v -2 37 -0
v -1 1 -0
v -1 16 -0
v -1 34 -0
v -1 35 -0
v -1 37 -0
v -1 38 -0
v -1 39 -0
v 0 1 -0
v 0 16 -0
v 0 34 -0
v 0 35 -0
v 0 37 -0
v 0 38 -0
v 0 39 -0
v 1 16 -0
v 1 34 -0
v 1 35 -0
v 1 37 -0
v 2 16 -0
v 2 17 -0
v 3 17 -0
v 3 18 -0
v 4 18 -0
v 4 19 -0
v 4 34 -0
v 4 35 -0
v 4 37 -0
v 4 38 -0
v 5 19 -0
v 5 20 -0
v 6 20 -0
v 6 21 -0
v 6 34 -0
v 6 35 -0
v 6 37 -0
v 6 38 -0
v 7 21 -0
v 7 22 -0
v 7 33 -0
v 7 34 -0
v 8 22 -0
v 8 33 -0
v 8 35 -0
v 8 37 -0
v -9 33 -1
v -9 34 -1
v -9 37 -1
v -9 38 -1
v -8 33 -1
v -8 34 -1
v -8 35 -1
v -7 34 -1
v -7 35 -1
v -7 37 -1
v -7 38 -1
v -7 39 -1
v -5 34 -1
v -5 35 -1
v -5 37 -1
v -5 38 -1
v -5 39 -1
v -2 34 -1
v -2 35 -1
v -2 37 -1
v -2 38 -1
v -1 16 -1
v -1 34 -1
v -1 35 -1
v -1 37 -1
v 0 16 -1
v 0 34 -1
v 0 35 -1
v 0 37 -1
v 1 34 -1
v 1 35 -1
v 1 37 -1
v 1 38 -1
v 4 34 -1
v 4 35 -1
v 4 37 -1
v 4 38 -1
v 4 39 -1
v 6 34 -1
v 6 35 -1
v 6 37 -1
v 6 38 -1
v 6 39 -1
v 7 33 -1
v 7 34 -1
v 7 35 -1
v 8 33 -1
v 8 34 -1
v 8 37 -1
v 8 38 -1
v -1 1 1
v -1 39 1
v 0 1 1
v 0 39 1
v -2 0 -1
v -2 16 -1
v -2 38 -1
v -2 40 -1
v 1 0 -1
v 1 16 -1
v 1 38 -1
v 1 40 -1
v -9 22 -2
v -9 34 -2
v -9 35 -2
v -9 38 -2
v -8 21 -2
v -8 22 -2
v -8 34 -2
v -8 35 -2
v -7 20 -2
v -7 21 -2
v -7 35 -2
v -7 38 -2
v -7 39 -2
v -6 19 -2
v -6 20 -2
v -5 18 -2
v -5 19 -2
v -5 35 -2
v -5 38 -2
v -5 39 -2
v -4 17 -2
v -4 18 -2
v -3 16 -2
v -3 17 -2
v 2 16 -2
v 2 17 -2
v 3 17 -2
v 3 18 -2
v 4 18 -2
v 4 19 -2
v 4 35 -2
v 4 38 -2
v 4 39 -2
v 5 19 -2
v 5 20 -2
v 6 20 -2
v 6 21 -2
v 6 35 -2
v 6 38 -2
v 6 39 -2
v 7 21 -2
v 7 22 -2
v 7 34 -2
v 7 35 -2
v 8 22 -2
v 8 34 -2
v 8 35 -2
v 8 38 -2
v -2 0 2
v 1 0 2
v -2 0 -1
v 1 0 -1
v -3 16 -0
v -2 16 -0
v 1 16 -0
v 2 16 -0
v -2 16 -1
v 1 16 -1
v -3 16 -2
v 2 16 -2
v -4 17 -0
v -3 17 -0
v 2 17 -0
v 3 17 -0
v -4 17 -2
v -3 17 -2
v 2 17 -2
v 3 17 -2
v -5 18 -0
v -4 18 -0
v 3 18 -0
v 4 18 -0
v -5 18 -2
v -4 18 -2
v 3 18 -2
v 4 18 -2
v -6 19 -0
v -5 19 -0
v 4 19 -0
v 5 19 -0
v -6 19 -2
v -5 19 -2
v 4 19 -2
v 5 19 -2
v -7 20 -0
v -6 20 -0
v 5 20 -0
v 6 20 -0
v -7 20 -2
v -6 20 -2
v 5 20 -2
v 6 20 -2
v -8 21 -0
v -7 21 -0
v 6 21 -0
v 7 21 -0
v -8 21 -2
v -7 21 -2
v 6 21 -2
v 7 21 -2
v -9 22 -0
v -8 22 -0
v 7 22 -0
v 8 22 -0
v -9 22 -2
v -8 22 -2
v 7 22 -2
v 8 22 -2
v -1 34 -0
v 0 34 -0
v -1 34 -1
v 0 34 -1
v -9 35 -0
v -7 35 -0
v -5 35 -0
v -2 35 -0
v 1 35 -0
v 4 35 -0
v 6 35 -0
v 8 35 -0
v -8 35 -1
v -7 35 -1
v -5 35 -1
v -2 35 -1
v 1 35 -1
v 4 35 -1
v 6 35 -1
v 7 35 -1
v -9 35 -2
v -8 35 -2
v 7 35 -2
v 8 35 -2
v -1 37 -0
v 0 37 -0
v -1 37 -1
v 0 37 -1
v -1 39 1
v 0 39 1
v -1 39 -0
v 0 39 -0
v -1 1 1
v 0 1 1
v -1 1 -0
v 0 1 -0
v -1 16 -0
v 0 16 -0
v -1 16 -1
v 0 16 -1
v -9 33 -0
v -8 33 -0
v 7 33 -0
v 8 33 -0
v -9 33 -1
v -8 33 -1
v 7 33 -1
v 8 33 -1
v -8 34 -0
v -7 34 -0
v -5 34 -0
v -2 34 -0
v 1 34 -0
v 4 34 -0
v 6 34 -0
v 7 34 -0
v -9 34 -1
v -8 34 -1
v -7 34 -1
v -5 34 -1
v -2 34 -1
v 1 34 -1
v 4 34 -1
v 6 34 -1
v 7 34 -1
v 8 34 -1
v -9 34 -2
v -8 34 -2
v 7 34 -2
v 8 34 -2
v -1 35 -0
v 0 35 -0
v -1 35 -1
v 0 35 -1
v -9 37 -0
v -7 37 -0
v -5 37 -0
v -2 37 -0
v 1 37 -0
v 4 37 -0
v 6 37 -0
v 8 37 -0
v -9 37 -1
v -7 37 -1
v -5 37 -1
v -2 37 -1
v 1 37 -1
v 4 37 -1
v 6 37 -1
v 8 37 -1
v -7 38 -0
v -5 38 -0
v 4 38 -0
v 6 38 -0
v -9 38 -1
v -7 38 -1
v -5 38 -1
v -2 38 -1
v 1 38 -1
v 4 38 -1
v 6 38 -1
v 8 38 -1
v -9 38 -2
v -7 38 -2
v -5 38 -2
v 4 38 -2
v 6 38 -2
v 8 38 -2
v -2 39 2
v 1 39 2
v -2 39 1
v 1 39 1
v -7 39 -1
v -5 39 -1
v 4 39 -1
v 6 39 -1
v -7 39 -2
v -5 39 -2
v 4 39 -2
v 6 39 -2
v -2 40 1
v 1 40 1
v -2 40 -1
v 1 40 -1

# faces
f 3/3/1 2/3/1 1/3/1
f 4/3/1 2/3/1 3/3/1
f 5/3/1 2/3/1 4/3/1
f 6/3/1 2/3/1 5/3/1
f 9/2/1 8/2/1 7/2/1
f 10/2/1 8/2/1 9/2/1
f 11/2/1 8/2/1 10/2/1
f 12/2/1 8/2/1 11/2/1
f 15/3/1 14/3/1 13/3/1
f 16/3/1 14/3/1 15/3/1
f 19/3/1 18/3/1 17/3/1
f 20/3/1 18/3/1 19/3/1
f 22/3/1 21/3/1 20/3/1
f 23/3/1 21/3/1 22/3/1
f 26/3/1 25/3/1 24/3/1
f 27/3/1 25/3/1 26/3/1
f 30/3/1 29/3/1 28/3/1
f 31/3/1 29/3/1 30/3/1
f 34/3/1 33/3/1 32/3/1
f 35/3/1 33/3/1 34/3/1
f 37/3/1 36/3/1 35/3/1
f 38/3/1 36/3/1 37/3/1
f 41/3/1 40/3/1 39/3/1
f 42/3/1 40/3/1 41/3/1
f 45/3/1 44/3/1 43/3/1
f 46/3/1 44/3/1 45/3/1
f 49/3/1 48/3/1 47/3/1
f 50/3/1 48/3/1 49/3/1
f 53/3/1 52/3/1 51/3/1
f 54/3/1 52/3/1 53/3/1
f 57/2/1 56/2/1 55/2/1
f 58/2/1 56/2/1 57/2/1
f 59/2/1 57/2/1 55/2/1
f 61/2/1 59/2/1 55/2/1
f 61/3/1 60/3/1 59/3/1
f 62/3/1 60/3/1 61/3/1
f 63/2/1 61/2/1 55/2/1
f 65/2/1 64/2/1 63/2/1
f 66/2/1 63/2/1 55/2/1
f 66/2/1 65/2/1 63/2/1
f 67/2/1 65/2/1 66/2/1
f 68/2/1 65/2/1 67/2/1
f 69/2/1 65/2/1 68/2/1
f 72/2/1 71/2/1 70/2/1
f 74/2/1 72/2/1 70/2/1
f 74/2/1 73/2/1 72/2/1
f 75/2/1 73/2/1 74/2/1
f 76/2/1 74/2/1 70/2/1
f 78/2/1 76/2/1 70/2/1
f 78/2/1 77/2/1 76/2/1
f 79/2/1 77/2/1 78/2/1
f 80/2/1 78/2/1 70/2/1
f 81/2/1 80/2/1 70/2/1
f 82/2/1 80/2/1 81/2/1
f 85/3/1 84/3/1 83/3/1
f 86/3/1 84/3/1 85/3/1
f 89/3/1 88/3/1 87/3/1
f 90/3/1 88/3/1 89/3/1
f 92/3/1 91/3/1 90/3/1
f 93/3/1 91/3/1 92/3/1
f 94/3/2 95/3/2 96/3/2
f 96/3/2 95/3/2 97/3/2
f 98/3/2 99/3/2 100/3/2
f 100/3/2 99/3/2 101/3/2
f 101/3/2 102/3/2 103/3/2
f 103/3/2 102/3/2 104/3/2
f 105/2/2 106/2/2 107/2/2
f 105/2/2 107/2/2 109/2/2
f 107/3/2 108/3/2 109/3/2
f 109/3/2 108/3/2 110/3/2
f 105/2/2 109/2/2 111/2/2
f 105/2/2 111/2/2 113/2/2
f 111/3/2 112/3/2 113/3/2
f 113/3/2 112/3/2 114/3/2
f 105/2/2 113/2/2 115/2/2
f 105/2/2 115/2/2 116/2/2
f 116/2/2 115/2/2 117/2/2
f 118/2/2 119/2/2 120/2/2
f 120/2/2 119/2/2 121/2/2
f 118/2/2 120/2/2 122/2/2
f 118/2/2 122/2/2 124/2/2
f 122/2/2 123/2/2 124/2/2
f 124/2/2 123/2/2 125/2/2
f 118/2/2 124/2/2 126/2/2
f 126/2/2 127/2/2 128/2/2
f 118/2/2 126/2/2 129/2/2
f 126/2/2 128/2/2 129/2/2
f 129/2/2 128/2/2 130/2/2
f 130/2/2 128/2/2 131/2/2
f 131/2/2 128/2/2 132/2/2
f 133/3/2 134/3/2 135/3/2
f 135/3/2 134/3/2 136/3/2
f 137/3/2 138/3/2 139/3/2
f 139/3/2 138/3/2 140/3/2
f 141/3/2 142/3/2 143/3/2
f 143/3/2 142/3/2 144/3/2
f 145/3/2 146/3/2 147/3/2
f 147/3/2 146/3/2 148/3/2
f 149/3/2 150/3/2 151/3/2
f 151/3/2 150/3/2 152/3/2
f 153/3/2 154/3/2 155/3/2
f 155/3/2 154/3/2 156/3/2
f 157/3/2 158/3/2 159/3/2
f 159/3/2 158/3/2 160/3/2
f 160/3/2 161/3/2 162/3/2
f 162/3/2 161/3/2 163/3/2
f 164/3/2 165/3/2 166/3/2
f 166/3/2 165/3/2 167/3/2
f 168/3/2 169/3/2 170/3/2
f 170/3/2 169/3/2 171/3/2
f 171/3/2 172/3/2 173/3/2
f 173/3/2 172/3/2 174/3/2
f 175/3/2 176/3/2 177/3/2
f 177/3/2 176/3/2 178/3/2
f 178/3/2 176/3/2 179/3/2
f 179/3/2 176/3/2 180/3/2
f 181/2/2 182/2/2 183/2/2
f 183/2/2 182/2/2 184/2/2
f 184/2/2 182/2/2 185/2/2
f 185/2/2 182/2/2 186/2/2
f 189/2/3 188/2/3 187/2/3
f 190/2/3 188/2/3 189/2/3
f 193/2/3 192/2/3 191/2/3
f 194/2/3 192/2/3 193/2/3
f 200/3/3 196/3/3 195/3/3
f 201/3/3 196/3/3 200/3/3
f 204/3/3 200/3/3 199/3/3
f 204/3/3 202/3/3 201/3/3
f 204/3/3 201/3/3 200/3/3
f 205/3/3 202/3/3 204/3/3
f 206/2/3 198/2/3 197/2/3
f 207/2/3 198/2/3 206/2/3
f 210/3/3 205/3/3 204/3/3
f 210/3/3 208/3/3 207/3/3
f 210/3/3 207/3/3 206/3/3
f 210/3/3 206/3/3 205/3/3
f 210/3/3 204/3/3 203/3/3
f 212/3/3 210/3/3 209/3/3
f 213/3/3 208/3/3 210/3/3
f 213/3/3 210/3/3 212/3/3
f 214/3/3 208/3/3 213/3/3
f 215/3/3 208/3/3 214/3/3
f 216/3/3 208/3/3 215/3/3
f 218/3/3 212/3/3 211/3/3
f 218/3/3 213/3/3 212/3/3
f 220/3/3 218/3/3 217/3/3
f 221/3/3 220/3/3 219/3/3
f 222/3/3 213/3/3 218/3/3
f 222/3/3 220/3/3 221/3/3
f 222/3/3 218/3/3 220/3/3
f 223/2/3 215/2/3 214/2/3
f 224/2/3 215/2/3 223/2/3
f 232/2/3 226/2/3 225/2/3
f 233/2/3 226/2/3 232/2/3
f 234/1/3 228/1/3 227/1/3
f 235/1/3 228/1/3 234/1/3
f 236/1/3 230/1/3 229/1/3
f 237/2/3 231/2/3 230/2/3
f 237/1/3 230/1/3 236/1/3
f 238/2/3 231/2/3 237/2/3
f 243/3/3 240/3/3 239/3/3
f 244/3/3 240/3/3 243/3/3
f 245/3/3 240/3/3 244/3/3
f 246/3/3 240/3/3 245/3/3
f 247/3/3 240/3/3 246/3/3
f 248/3/3 240/3/3 247/3/3
f 249/3/3 240/3/3 248/3/3
f 250/2/3 242/2/3 241/2/3
f 251/2/3 242/2/3 250/2/3
f 253/3/3 249/3/3 248/3/3
f 253/3/3 250/3/3 249/3/3
f 254/3/3 250/3/3 253/3/3
f 255/3/3 250/3/3 254/3/3
f 256/3/3 250/3/3 255/3/3
f 257/3/3 250/3/3 256/3/3
f 258/2/3 251/2/3 250/2/3
f 258/3/3 250/3/3 257/3/3
f 259/3/3 252/3/3 251/3/3
f 259/2/3 251/2/3 258/2/3
f 260/3/3 252/3/3 259/3/3
f 261/3/3 257/3/3 256/3/3
f 262/3/3 257/3/3 261/3/3
f 263/3/3 257/3/3 262/3/3
f 264/3/3 257/3/3 263/3/3
f 265/3/3 263/3/3 262/3/3
f 266/3/3 263/3/3 265/3/3
f 267/2/3 259/2/3 258/2/3
f 268/2/3 259/2/3 267/2/3
f 273/3/3 270/3/3 269/3/3
f 274/3/3 270/3/3 273/3/3
f 276/3/3 275/3/3 274/3/3
f 277/3/3 275/3/3 276/3/3
f 278/2/3 272/2/3 271/2/3
f 279/2/3 272/2/3 278/2/3
f 284/3/3 280/3/3 279/3/3
f 285/3/3 280/3/3 284/3/3
f 286/3/3 282/3/3 281/3/3
f 287/3/3 282/3/3 286/3/3
f 288/2/3 284/2/3 283/2/3
f 289/2/3 284/2/3 288/2/3
f 294/3/3 291/3/3 290/3/3
f 295/3/3 291/3/3 294/3/3
f 296/2/3 293/2/3 292/2/3
f 297/2/3 293/2/3 296/2/3
f 302/3/3 299/3/3 298/3/3
f 303/3/3 299/3/3 302/3/3
f 304/2/3 301/2/3 300/2/3
f 305/2/3 301/2/3 304/2/3
f 310/3/3 306/3/3 305/3/3
f 311/3/3 306/3/3 310/3/3
f 313/3/3 308/3/3 307/3/3
f 314/3/3 308/3/3 313/3/3
f 315/3/3 313/3/3 312/3/3
f 316/3/3 313/3/3 315/3/3
f 317/2/3 310/2/3 309/2/3
f 318/2/3 310/2/3 317/2/3
f 319/2/4 320/2/4 321/2/4
f 321/2/4 320/2/4 322/2/4
f 323/2/4 324/2/4 327/2/4
f 327/2/4 324/2/4 328/2/4
f 325/2/4 326/2/4 329/2/4
f 329/2/4 326/2/4 330/2/4
f 331/3/4 332/3/4 336/3/4
f 336/3/4 332/3/4 337/3/4
f 333/2/4 334/2/4 338/2/4
f 336/3/4 337/3/4 340/3/4
f 337/3/4 338/3/4 340/3/4
f 335/3/4 336/3/4 340/3/4
f 338/2/4 334/2/4 341/2/4
f 340/3/4 338/3/4 341/3/4
f 341/2/4 334/2/4 342/2/4
f 339/3/4 340/3/4 345/3/4
f 342/3/4 343/3/4 345/3/4
f 341/3/4 342/3/4 345/3/4
f 340/3/4 341/3/4 345/3/4
f 344/3/4 345/3/4 347/3/4
f 345/3/4 343/3/4 348/3/4
f 347/3/4 345/3/4 348/3/4
f 348/3/4 343/3/4 349/3/4
f 349/3/4 343/3/4 350/3/4
f 346/3/4 347/3/4 352/3/4
f 347/3/4 348/3/4 352/3/4
f 351/3/4 352/3/4 354/3/4
f 353/3/4 354/3/4 355/3/4
f 354/3/4 352/3/4 356/3/4
f 355/3/4 354/3/4 356/3/4
f 356/3/4 352/3/4 357/3/4
f 352/3/4 348/3/4 358/3/4
f 357/3/4 352/3/4 358/3/4
f 358/3/4 348/3/4 359/3/4
f 359/3/4 348/3/4 360/3/4
f 348/2/4 349/2/4 361/2/4
f 360/3/4 348/3/4 361/3/4
f 361/2/4 349/2/4 362/2/4
f 362/3/4 363/3/4 364/3/4
f 361/3/4 362/3/4 364/3/4
f 360/3/4 361/3/4 364/3/4
f 364/3/4 363/3/4 365/3/4
f 365/3/4 363/3/4 366/3/4
f 366/3/4 363/3/4 367/3/4
f 367/3/4 363/3/4 368/3/4
f 368/3/4 363/3/4 369/3/4
f 369/3/4 363/3/4 370/3/4
f 367/3/4 368/3/4 371/3/4
f 371/3/4 368/3/4 372/3/4
f 372/3/4 368/3/4 373/3/4
f 368/2/4 369/2/4 374/2/4
f 373/3/4 368/3/4 374/3/4
f 372/3/4 373/3/4 375/3/4
f 375/3/4 373/3/4 376/3/4
f 374/2/4 369/2/4 377/2/4
f 377/2/4 369/2/4 378/2/4
f 381/2/5 380/2/5 379/2/5
f 382/2/5 380/2/5 381/2/5
f 387/3/5 384/3/5 383/3/5
f 388/3/5 386/3/5 385/3/5
f 389/3/5 387/3/5 383/3/5
f 389/3/5 388/3/5 387/3/5
f 390/3/5 386/3/5 388/3/5
f 390/3/5 388/3/5 389/3/5
f 395/3/5 392/3/5 391/3/5
f 396/3/5 392/3/5 395/3/5
f 397/3/5 394/3/5 393/3/5
f 398/3/5 394/3/5 397/3/5
f 403/3/5 400/3/5 399/3/5
f 404/3/5 400/3/5 403/3/5
f 405/3/5 402/3/5 401/3/5
f 406/3/5 402/3/5 405/3/5
f 411/3/5 408/3/5 407/3/5
f 412/3/5 408/3/5 411/3/5
f 413/3/5 410/3/5 409/3/5
f 414/3/5 410/3/5 413/3/5
f 419/3/5 416/3/5 415/3/5
f 420/3/5 416/3/5 419/3/5
f 421/3/5 418/3/5 417/3/5
f 422/3/5 418/3/5 421/3/5
f 427/3/5 424/3/5 423/3/5
f 428/3/5 424/3/5 427/3/5
f 429/3/5 426/3/5 425/3/5
f 430/3/5 426/3/5 429/3/5
f 435/3/5 432/3/5 431/3/5
f 436/3/5 432/3/5 435/3/5
f 437/3/5 434/3/5 433/3/5
f 438/3/5 434/3/5 437/3/5
f 441/1/5 440/1/5 439/1/5
f 442/1/5 440/1/5 441/1/5
f 451/2/5 444/2/5 443/2/5
f 452/2/5 444/2/5 451/2/5
f 453/2/5 446/2/5 445/2/5
f 454/2/5 446/2/5 453/2/5
f 455/2/5 448/2/5 447/2/5
f 456/2/5 448/2/5 455/2/5
f 457/2/5 450/2/5 449/2/5
f 458/2/5 450/2/5 457/2/5
f 459/2/5 451/2/5 443/2/5
f 460/2/5 451/2/5 459/2/5
f 461/2/5 450/2/5 458/2/5
f 462/2/5 450/2/5 461/2/5
f 465/1/5 464/1/5 463/1/5
f 466/1/5 464/1/5 465/1/5
f 469/2/5 468/2/5 467/2/5
f 470/2/5 468/2/5 469/2/5
f 471/2/6 472/2/6 473/2/6
f 473/2/6 472/2/6 474/2/6
f 475/2/6 476/2/6 477/2/6
f 477/2/6 476/2/6 478/2/6
f 479/3/6 480/3/6 483/3/6
f 483/3/6 480/3/6 484/3/6
f 481/3/6 482/3/6 485/3/6
f 485/3/6 482/3/6 486/3/6
f 487/3/6 488/3/6 496/3/6
f 496/3/6 488/3/6 497/3/6
f 489/3/6 490/3/6 498/3/6
f 498/3/6 490/3/6 499/3/6
f 491/3/6 492/3/6 500/3/6
f 500/3/6 492/3/6 501/3/6
f 493/3/6 494/3/6 502/3/6
f 502/3/6 494/3/6 503/3/6
f 495/3/6 496/3/6 505/3/6
f 505/3/6 496/3/6 506/3/6
f 503/3/6 504/3/6 507/3/6
f 507/3/6 504/3/6 508/3/6
f 509/1/6 510/1/6 511/1/6
f 511/1/6 510/1/6 512/1/6
f 513/2/6 514/2/6 521/2/6
f 521/2/6 514/2/6 522/2/6
f 515/2/6 516/2/6 523/2/6
f 523/2/6 516/2/6 524/2/6
f 517/2/6 518/2/6 525/2/6
f 525/2/6 518/2/6 526/2/6
f 519/2/6 520/2/6 527/2/6
f 527/2/6 520/2/6 528/2/6
f 529/3/6 530/3/6 534/3/6
f 534/3/6 530/3/6 535/3/6
f 531/3/6 532/3/6 538/3/6
f 538/3/6 532/3/6 539/3/6
f 533/2/6 534/2/6 541/2/6
f 541/2/6 534/2/6 542/2/6
f 536/2/6 537/2/6 543/2/6
f 537/2/6 538/2/6 543/2/6
f 535/2/6 536/2/6 543/2/6
f 543/2/6 538/2/6 544/2/6
f 539/2/6 540/2/6 545/2/6
f 545/2/6 540/2/6 546/2/6
f 547/2/6 548/2/6 549/2/6
f 549/2/6 548/2/6 550/2/6
f 551/3/6 552/3/6 555/3/6
f 555/3/6 552/3/6 556/3/6
f 553/3/6 554/3/6 557/3/6
f 557/3/6 554/3/6 558/3/6
f 559/2/6 560/2/6 561/2/6
f 561/2/6 560/2/6 562/2/6
